<?xml version="1.0" encoding="utf-8"?>
<!-- Generator: Adobe Illustrator 27.5.0, SVG Export Plug-In . SVG Version: 6.00 Build 0)  -->
<svg version="1.1" xmlns="http://www.w3.org/2000/svg" xmlns:xlink="http://www.w3.org/1999/xlink" x="0px" y="0px"
	 viewBox="0 0 500 500" style="enable-background:new 0 0 500 500;" xml:space="preserve">
<g id="Background_1_">
	<g>
		<rect x="9" y="255" style="fill:#DFDEDC;" width="55" height="158"/>
		<rect x="72" y="188" style="fill:#DFDEDC;" width="35" height="225"/>
		<rect x="118" y="226" style="fill:#DFDEDC;" width="44" height="187"/>
		<rect x="174" y="247" style="fill:#DFDEDC;" width="59" height="166"/>
		<rect x="252" y="216" style="fill:#DFDEDC;" width="44" height="197"/>
		<rect x="311" y="261" style="fill:#DFDEDC;" width="57" height="155"/>
		<rect x="385" y="169" style="fill:#DFDEDC;" width="46" height="244"/>
		<rect x="440" y="221" style="fill:#DFDEDC;" width="50" height="192"/>
	</g>
</g>
<g id="Objects">
	<g>
		<g>
			<polygon style="fill:#5D5C52;" points="400.5,412 351.5,412 355.5,138 394.5,138 			"/>
			<rect x="358" y="132" style="fill:#5D5C52;" width="33" height="10"/>
			<path style="fill:#5D5C52;" d="M375,150c0,0-9.024-37.319,0-53.703C375,96.297,385.542,102.412,375,150z"/>
		</g>
		<polygon style="opacity:0.4;fill:#333333;" points="351.5,412 374.5,137 400.5,412 		"/>
	</g>
	<g>
		<text transform="matrix(1 0 0 1 45.2476 103.3208)" style="font-family:'Raleway-Heavy'; font-size:31.9623px;">NEW YORK</text>
		<text transform="matrix(1 0 0 1 220.5 103.3208)" style="font-family:'Raleway-Medium'; font-size:31.9623px;">SKYLINE</text>
	</g>
	<g>
		<g>
			<path style="fill:#333333;stroke:#333333;stroke-miterlimit:10;" d="M472.5,214.5h-30.067h-4.368H405.5v11h2v79.518v105.391
				v4.092h24.014h8.734h22.566h7.686V305.018V225.5h2V214.5z M416.5,324.5v-81.384c0-7.08,1.479-12.116,8.5-12.116
				c8.932,0,8.5,4.582,8.5,11.88v81.62H416.5z M444.5,324.5v-81.384c0-7.08,1.478-12.116,8.5-12.116c8.932,0,8.5,4.582,8.5,11.88
				v81.62H444.5z"/>
			<path style="fill:none;stroke:#333333;stroke-width:4;stroke-miterlimit:10;" d="M296,220c0,0,66.235,131.303,167.154,5"/>
			<path style="fill:none;stroke:#333333;stroke-width:4;stroke-miterlimit:10;" d="M254,224c0,0,66.235,131.303,167.154,5"/>
			<path style="fill:#333333;stroke:#333333;stroke-miterlimit:10;" d="M308.5,214.5h-30.253h-4.368H241.5v11h2v79.018v105.391
				v4.592h23.828h8.734h22.566h7.871V304.518V225.5h2V214.5z M252.5,324.5v-81.884c0-7.08,1.479-12.116,8.5-12.116
				c8.932,0,8.5,4.582,8.5,11.88v82.12H252.5z M280.5,324.5v-81.884c0-7.08,1.478-12.116,8.5-12.116c8.932,0,8.5,4.582,8.5,11.88
				v82.12H280.5z"/>
		</g>
		<rect x="285" y="324" style="fill:#333333;" width="162" height="24"/>
		<path style="fill:#333333;" d="M305.7,368.671c0,0,8.545-8.92,51.161-8.92s64.669,13.38,64.669,13.38l-0.376-29.361l-120.076-5.27
			L305.7,368.671z"/>
	</g>
	<path style="fill:#333333;" d="M158,187v227h64V187H158z M171,388h-6v-33h6V388z M171,348h-6v-33h6V348z M171,308h-6v-33h6V308z
		 M171,268h-6v-33h6V268z M171,228h-6v-33h6V228z M186,388h-6v-33h6V388z M186,348h-6v-33h6V348z M186,308h-6v-33h6V308z M186,268
		h-6v-33h6V268z M186,228h-6v-33h6V228z M201,388h-6v-33h6V388z M201,348h-6v-33h6V348z M201,308h-6v-33h6V308z M201,268h-6v-33h6
		V268z M201,228h-6v-33h6V228z M216,388h-6v-33h6V388z M216,348h-6v-33h6V348z M216,308h-6v-33h6V308z M216,268h-6v-33h6V268z
		 M216,228h-6v-33h6V228z"/>
	<g>
		<path style="fill:#333333;" d="M329.721,183.755c0.01-0.138,0.021-0.274,0.021-0.414c0-3.436-2.784-6.22-6.219-6.22
			c-0.566,0-1.112,0.083-1.635,0.225c-1.875-2.63-4.943-4.352-8.42-4.352c-1.518,0-2.953,0.335-4.25,0.922
			c-2.629-3.009-6.484-4.916-10.793-4.916c-4.057,0-7.713,1.691-10.322,4.4c-0.904-0.259-1.856-0.406-2.844-0.406
			c-3.496,0-6.581,1.739-8.453,4.396c-0.57-0.174-1.177-0.27-1.805-0.27c-3.434,0-6.219,2.784-6.219,6.22
			c0,0.14,0.012,0.276,0.021,0.414H329.721z"/>
		<circle style="fill:#333333;" cx="447.136" cy="112.794" r="15.8"/>
		<path style="fill:#333333;" d="M260.037,138.51c-0.539-2.501-2.76-4.378-5.424-4.378c-0.488,0-0.961,0.071-1.412,0.189
			c-1.455-5.097-6.137-8.831-11.7-8.831c-5.563,0-10.244,3.735-11.699,8.831c-0.451-0.118-0.925-0.189-1.416-0.189
			c-2.662,0-4.884,1.877-5.422,4.378H260.037z"/>
		<g>
			<line style="fill:none;stroke:#5D5C52;stroke-width:2;stroke-miterlimit:10;" x1="147" y1="137" x2="170" y2="137"/>
			<line style="fill:none;stroke:#5D5C52;stroke-width:2;stroke-miterlimit:10;" x1="154" y1="140" x2="177" y2="140"/>
		</g>
		<g>
			<line style="fill:none;stroke:#5D5C52;stroke-width:2;stroke-miterlimit:10;" x1="450" y1="154" x2="473" y2="154"/>
			<line style="fill:none;stroke:#5D5C52;stroke-width:2;stroke-miterlimit:10;" x1="457" y1="157" x2="480" y2="157"/>
		</g>
	</g>
	<path style="fill:#333333;" d="M141.419,364l0.581-9h-3.785l0.733-11.94l-3.876,0.034L136,325h-3V211h0.851l3.463-8H131v-16h-0.469
		c0.001-0.067,0.01-0.133,0.01-0.2c0-3.07-0.867-5.923-2.346-8.32c0.045-0.452,0.071-0.91,0.071-1.374
		c0-3.198-1.11-6.118-2.939-8.374c0.198-0.811,0.315-1.656,0.315-2.532c0-2.599-0.936-4.962-2.462-6.758
		c0.011-0.17,0.025-0.34,0.025-0.513c0-3.458-2.201-6.371-5.206-7.284V125h-3v26.424c-3.506,0.514-6.207,3.673-6.207,7.505
		c0,0.173,0.014,0.343,0.025,0.513c-1.526,1.796-2.462,4.159-2.462,6.758c0,0.876,0.117,1.722,0.315,2.532
		c-1.829,2.255-2.938,5.176-2.938,8.374c0,0.464,0.026,0.922,0.071,1.374c-1.479,2.396-2.346,5.25-2.346,8.32
		c0,0.067,0.009,0.133,0.01,0.2H101v16h-6.326l3.464,8H99v114h-3l0.945,18.433l-3.995,0.035L93.905,355H90l0.581,9H88v46h56v-46
		H141.419z M106,322h-2V212h2V322z M114,322h-2V212h2V322z M121,322h-2V212h2V322z M129,322h-2V212h2V322z"/>
	<path style="fill:#333333;" d="M70,240v-25h-3v-18h-5.25l-5.505-24H54v-16h-2v-32h-3v32h-2v16h-2.122l-6.163,24H32v18h-3v25h-3v168
		h47V240H70z M35,403h-1v-9h1V403z M35,387h-1v-9h1V387z M35,371h-1v-9h1V371z M35,355h-1v-9h1V355z M35,339h-1v-9h1V339z M35,323
		h-1v-9h1V323z M35,307h-1v-9h1V307z M35,291h-1v-9h1V291z M35,275h-1v-9h1V275z M35,259h-1v-9h1V259z M35,243h-1v-9h1V243z M35,227
		h-1v-9h1V227z M41,403h-1v-9h1V403z M41,387h-1v-9h1V387z M41,371h-1v-9h1V371z M41,355h-1v-9h1V355z M41,339h-1v-9h1V339z M41,323
		h-1v-9h1V323z M41,307h-1v-9h1V307z M41,291h-1v-9h1V291z M41,275h-1v-9h1V275z M41,259h-1v-9h1V259z M41,243h-1v-9h1V243z M41,227
		h-1v-9h1V227z M47,403h-1v-9h1V403z M47,387h-1v-9h1V387z M47,371h-1v-9h1V371z M47,355h-1v-9h1V355z M47,339h-1v-9h1V339z M47,323
		h-1v-9h1V323z M47,307h-1v-9h1V307z M47,291h-1v-9h1V291z M47,275h-1v-9h1V275z M47,259h-1v-9h1V259z M47,243h-1v-9h1V243z M47,227
		h-1v-9h1V227z M53,403h-1v-9h1V403z M53,387h-1v-9h1V387z M53,371h-1v-9h1V371z M53,355h-1v-9h1V355z M53,339h-1v-9h1V339z M53,323
		h-1v-9h1V323z M53,307h-1v-9h1V307z M53,291h-1v-9h1V291z M53,275h-1v-9h1V275z M53,259h-1v-9h1V259z M53,243h-1v-9h1V243z M53,227
		h-1v-9h1V227z M59,403h-1v-9h1V403z M59,387h-1v-9h1V387z M59,371h-1v-9h1V371z M59,355h-1v-9h1V355z M59,339h-1v-9h1V339z M59,323
		h-1v-9h1V323z M59,307h-1v-9h1V307z M59,291h-1v-9h1V291z M59,275h-1v-9h1V275z M59,259h-1v-9h1V259z M59,243h-1v-9h1V243z M59,227
		h-1v-9h1V227z M65,403h-1v-9h1V403z M65,387h-1v-9h1V387z M65,371h-1v-9h1V371z M65,355h-1v-9h1V355z M65,339h-1v-9h1V339z M65,323
		h-1v-9h1V323z M65,307h-1v-9h1V307z M65,291h-1v-9h1V291z M65,275h-1v-9h1V275z M65,259h-1v-9h1V259z M65,243h-1v-9h1V243z M65,227
		h-1v-9h1V227z"/>
	<g>
		<path style="fill:#5D5C52;" d="M288.701,397.375c-1.436-0.159-3.269,0.107-3.269-0.08c0-0.227-0.95-21.833-0.95-21.833
			s3.913,2.46,2.085-4.3c-1.828-6.763-4.436-11.583-4.436-11.583h-3.741v-33.036c0,0,4.782,1.573,6.343-3.147h3.097l0.872-8.717
			l-8.392-5.035l-0.26,5.887h-1.66c0,0-0.16-8.652-4.06-8.652c-3.9,0-4.019-3.384-3.23-5.503c0.641-1.723,3.791-6.615,0.441-9.583
			c-5.304-4.699-10.475,0.286-9.694,6.788l-2.475-18.39l2.585-0.126l-0.063-2.649l-2.459,0.126c0,0-0.971-4.992,0.33-6.033
			c0,0-6.636-0.776-5.38,6.157l-1.166,0.086l0.036,2.313l2.392,0.268l1.519,17.963c0,0-4.163,4.42-1.041,7.28
			c3.122,2.861,1.821,11.964,1.561,13.265c-0.259,1.3,2.289,41.038,2.289,41.038l-3.723,0.08c0,0-6.628,17.393-1.947,15.313
			l0.27,21.865l-3.453,0.137L251,413.066h37.542L288.701,397.375z"/>
		<polygon style="fill:#5D5C52;" points="270.334,301.188 278.215,301.818 270.964,299.17 		"/>
		<polygon style="fill:#5D5C52;" points="271.823,297.639 279.505,295.767 271.789,295.526 		"/>
		<polygon style="fill:#5D5C52;" points="271.884,294.897 278.161,290.092 271.002,292.978 		"/>
		<polygon style="fill:#5D5C52;" points="270.311,292.469 274.227,285.599 268.753,291.043 		"/>
		<polygon style="fill:#5D5C52;" points="267.743,290.854 265.338,283.322 265.638,291.036 		"/>
		<polygon style="fill:#5D5C52;" points="265.264,291.543 258.48,287.482 263.807,293.071 		"/>
	</g>
	<rect y="407" style="fill:#333333;" width="500" height="12"/>
</g>
<g id="Designed_by_freepik">
	<g>
		<g id="XMLID_97_">
			<path id="XMLID_118_" style="fill:#333333;" d="M181.356,470.185c-0.245,0-0.433,0.085-0.563,0.254
				c-0.134,0.169-0.199,0.419-0.199,0.75v2.383c-0.303-0.33-0.614-0.576-0.934-0.736c-0.319-0.158-0.712-0.239-1.177-0.239
				c-0.804,0-1.452,0.282-1.944,0.846c-0.492,0.563-0.739,1.35-0.739,2.359c0,0.477,0.063,0.919,0.187,1.33
				c0.124,0.41,0.306,0.767,0.547,1.069c0.24,0.304,0.524,0.537,0.853,0.701c0.329,0.163,0.688,0.245,1.074,0.245
				c0.292,0,0.561-0.04,0.806-0.122c0.247-0.08,0.476-0.198,0.686-0.355c0.211-0.155,0.424-0.357,0.641-0.605v0.159
				c0,0.296,0.072,0.523,0.217,0.684c0.144,0.159,0.325,0.239,0.546,0.239c0.225,0,0.408-0.077,0.551-0.231
				c0.143-0.154,0.212-0.385,0.212-0.692v-7.118c0-0.304-0.065-0.532-0.197-0.688C181.789,470.263,181.601,470.185,181.356,470.185z
				 M180.296,476.998c-0.141,0.305-0.327,0.531-0.562,0.68c-0.234,0.147-0.494,0.222-0.778,0.222c-0.279,0-0.537-0.078-0.775-0.235
				c-0.236-0.154-0.422-0.386-0.559-0.693c-0.135-0.308-0.203-0.68-0.203-1.117c0-0.413,0.064-0.777,0.192-1.092
				c0.127-0.313,0.308-0.553,0.54-0.721c0.232-0.167,0.497-0.251,0.793-0.251c0.283,0,0.545,0.082,0.783,0.244
				c0.238,0.165,0.427,0.401,0.567,0.71c0.141,0.31,0.21,0.68,0.21,1.109C180.506,476.31,180.436,476.692,180.296,476.998z"/>
			<path id="XMLID_115_" style="fill:#333333;" d="M188.693,476.081c0.231-0.121,0.348-0.383,0.348-0.79
				c0-0.436-0.112-0.866-0.336-1.289c-0.225-0.421-0.563-0.765-1.015-1.03c-0.451-0.267-0.992-0.398-1.622-0.398
				c-0.485,0-0.927,0.077-1.324,0.232c-0.398,0.156-0.733,0.38-1.006,0.672c-0.271,0.291-0.478,0.641-0.621,1.049
				c-0.142,0.408-0.212,0.85-0.212,1.327c0,1.013,0.288,1.815,0.863,2.405c0.574,0.591,1.381,0.888,2.418,0.888
				c0.453,0,0.854-0.06,1.202-0.178c0.351-0.119,0.638-0.268,0.869-0.446c0.231-0.18,0.403-0.366,0.518-0.563
				c0.114-0.195,0.172-0.364,0.172-0.511c0-0.166-0.052-0.293-0.155-0.385c-0.102-0.09-0.235-0.136-0.4-0.136
				c-0.153,0-0.273,0.035-0.355,0.106c-0.202,0.188-0.364,0.339-0.49,0.449c-0.126,0.111-0.265,0.215-0.414,0.311
				c-0.149,0.098-0.304,0.166-0.464,0.213c-0.159,0.044-0.336,0.067-0.529,0.067c-0.288,0-0.551-0.07-0.789-0.212
				c-0.238-0.143-0.43-0.354-0.573-0.634c-0.145-0.279-0.219-0.603-0.222-0.97h3.156
				C188.133,476.261,188.461,476.201,188.693,476.081z M184.555,475.346c0.055-0.545,0.212-0.956,0.471-1.233
				c0.258-0.279,0.587-0.416,0.99-0.416c0.421,0,0.76,0.136,1.019,0.409c0.258,0.274,0.408,0.688,0.447,1.24H184.555z"/>
			<path id="XMLID_114_" style="fill:#333333;" d="M194.099,475.647c-0.318-0.17-0.727-0.315-1.227-0.438
				c-0.422-0.104-0.753-0.19-0.993-0.26c-0.241-0.07-0.432-0.161-0.574-0.27c-0.142-0.108-0.212-0.246-0.212-0.417
				c0-0.186,0.097-0.34,0.289-0.463c0.193-0.125,0.436-0.186,0.728-0.186c0.284,0,0.509,0.047,0.674,0.141
				c0.166,0.096,0.31,0.223,0.431,0.38c0.151,0.189,0.283,0.33,0.4,0.424c0.115,0.096,0.257,0.144,0.422,0.144
				c0.229,0,0.406-0.061,0.529-0.178c0.124-0.118,0.186-0.271,0.186-0.455c0-0.17-0.058-0.343-0.174-0.521
				c-0.116-0.177-0.285-0.338-0.509-0.483c-0.222-0.146-0.5-0.264-0.834-0.349c-0.331-0.088-0.707-0.131-1.125-0.131
				c-0.533,0-0.986,0.085-1.362,0.258c-0.376,0.171-0.662,0.401-0.855,0.688c-0.193,0.288-0.29,0.595-0.29,0.917
				c0,0.362,0.105,0.668,0.314,0.917c0.209,0.248,0.487,0.448,0.836,0.6c0.35,0.151,0.801,0.296,1.357,0.434
				c0.492,0.119,0.846,0.243,1.062,0.373c0.215,0.131,0.321,0.337,0.321,0.62c0,0.186-0.103,0.35-0.31,0.495
				c-0.207,0.143-0.472,0.215-0.795,0.215c-0.399,0-0.712-0.07-0.943-0.212c-0.23-0.144-0.43-0.356-0.595-0.646
				c-0.082-0.148-0.169-0.266-0.261-0.349c-0.091-0.082-0.22-0.124-0.388-0.124c-0.194,0-0.355,0.064-0.48,0.19
				c-0.128,0.126-0.19,0.277-0.19,0.455c0,0.268,0.099,0.535,0.296,0.801c0.196,0.266,0.503,0.487,0.916,0.665
				c0.414,0.178,0.911,0.267,1.489,0.267c0.607,0,1.123-0.082,1.547-0.245c0.423-0.164,0.744-0.404,0.96-0.722
				c0.218-0.317,0.325-0.699,0.325-1.145c0-0.296-0.081-0.559-0.244-0.789C194.656,476.016,194.415,475.815,194.099,475.647z"/>
			<path id="XMLID_113_" style="fill:#333333;" d="M196.695,472.584c-0.237,0-0.429,0.081-0.575,0.242
				c-0.149,0.162-0.222,0.403-0.222,0.721v4.618c0,0.314,0.072,0.557,0.222,0.728c0.146,0.169,0.338,0.254,0.575,0.254
				s0.433-0.083,0.586-0.248c0.153-0.166,0.23-0.411,0.23-0.733V473.5c0-0.286-0.077-0.512-0.23-0.674
				C197.128,472.665,196.933,472.584,196.695,472.584z"/>
			<path id="XMLID_112_" style="fill:#333333;" d="M196.713,470.255c-0.216,0-0.406,0.072-0.569,0.222
				c-0.164,0.148-0.245,0.335-0.245,0.564c0,0.253,0.079,0.448,0.239,0.586c0.159,0.137,0.352,0.207,0.575,0.207
				c0.217,0,0.405-0.07,0.563-0.211c0.156-0.139,0.236-0.334,0.236-0.582c0-0.257-0.081-0.451-0.242-0.585
				C197.108,470.321,196.923,470.255,196.713,470.255z"/>
			<path id="XMLID_109_" style="fill:#333333;" d="M203.808,472.584c-0.217,0-0.395,0.077-0.532,0.23
				c-0.139,0.154-0.207,0.371-0.207,0.65v0.22c-0.287-0.375-0.6-0.649-0.935-0.826c-0.335-0.174-0.731-0.263-1.188-0.263
				c-0.382,0-0.732,0.068-1.052,0.203c-0.319,0.138-0.602,0.339-0.846,0.608c-0.243,0.267-0.432,0.596-0.564,0.987
				c-0.132,0.39-0.198,0.828-0.198,1.313c0,0.65,0.109,1.223,0.326,1.721c0.216,0.496,0.526,0.882,0.931,1.158
				c0.404,0.275,0.875,0.413,1.416,0.413c0.447,0,0.836-0.09,1.16-0.271c0.326-0.181,0.612-0.445,0.861-0.793
				c-0.008,0.528-0.019,0.912-0.035,1.15c-0.016,0.239-0.07,0.463-0.163,0.671c-0.093,0.208-0.254,0.372-0.484,0.487
				c-0.23,0.117-0.555,0.176-0.973,0.176c-0.204,0-0.387-0.02-0.544-0.057c-0.158-0.038-0.293-0.095-0.404-0.171
				c-0.112-0.077-0.216-0.17-0.309-0.278s-0.182-0.217-0.269-0.322c-0.177-0.209-0.385-0.313-0.621-0.313
				c-0.188,0-0.351,0.061-0.484,0.186c-0.134,0.123-0.201,0.283-0.201,0.48c0,0.261,0.119,0.514,0.356,0.761
				c0.237,0.246,0.573,0.447,1.01,0.603c0.438,0.154,0.936,0.232,1.49,0.232c0.606,0,1.114-0.061,1.522-0.183
				c0.407-0.122,0.737-0.309,0.99-0.561c0.251-0.253,0.436-0.572,0.549-0.957c0.115-0.388,0.173-0.849,0.173-1.385v-4.688
				c0-0.382-0.052-0.675-0.155-0.878C204.326,472.686,204.118,472.584,203.808,472.584z M202.785,476.933
				c-0.151,0.289-0.345,0.506-0.584,0.65c-0.238,0.143-0.491,0.216-0.759,0.216c-0.453,0-0.822-0.167-1.108-0.503
				c-0.286-0.335-0.429-0.831-0.429-1.484c0-0.646,0.139-1.145,0.417-1.495c0.278-0.35,0.645-0.526,1.108-0.526
				c0.473,0,0.855,0.184,1.145,0.551c0.289,0.366,0.434,0.879,0.434,1.536C203.009,476.291,202.934,476.643,202.785,476.933z"/>
			<path id="XMLID_108_" style="fill:#333333;" d="M211.131,473.647c-0.165-0.338-0.416-0.6-0.751-0.785
				c-0.335-0.186-0.715-0.278-1.141-0.278c-0.438,0-0.824,0.088-1.162,0.263c-0.337,0.176-0.647,0.45-0.931,0.825v-0.194
				c0-0.193-0.034-0.357-0.103-0.491c-0.07-0.134-0.162-0.234-0.275-0.301c-0.114-0.068-0.242-0.101-0.386-0.101
				c-0.232,0-0.415,0.076-0.55,0.227c-0.134,0.152-0.2,0.382-0.2,0.689v4.665c0,0.314,0.076,0.557,0.225,0.728
				c0.15,0.169,0.341,0.254,0.574,0.254c0.24,0,0.437-0.082,0.589-0.245c0.15-0.164,0.227-0.41,0.227-0.736v-2.022
				c0-0.658,0.04-1.107,0.118-1.348c0.11-0.299,0.283-0.535,0.521-0.707c0.235-0.171,0.498-0.257,0.785-0.257
				c0.442,0,0.736,0.143,0.884,0.423c0.148,0.281,0.223,0.689,0.223,1.221v2.69c0,0.314,0.073,0.557,0.226,0.728
				c0.149,0.169,0.344,0.254,0.584,0.254c0.236,0,0.43-0.083,0.576-0.248c0.148-0.166,0.223-0.411,0.223-0.733v-3.004
				c0-0.355-0.017-0.646-0.049-0.875C211.306,474.059,211.238,473.845,211.131,473.647z"/>
			<path id="XMLID_105_" style="fill:#333333;" d="M217.947,476.081c0.232-0.121,0.349-0.383,0.349-0.79
				c0-0.436-0.112-0.866-0.337-1.289c-0.226-0.421-0.564-0.765-1.015-1.03c-0.452-0.267-0.992-0.398-1.623-0.398
				c-0.484,0-0.926,0.077-1.323,0.232c-0.398,0.156-0.733,0.38-1.005,0.672c-0.273,0.291-0.48,0.641-0.621,1.049
				c-0.142,0.408-0.213,0.85-0.213,1.327c0,1.013,0.288,1.815,0.862,2.405c0.576,0.591,1.382,0.888,2.419,0.888
				c0.453,0,0.854-0.06,1.203-0.178c0.349-0.119,0.637-0.268,0.868-0.446c0.23-0.18,0.403-0.366,0.518-0.563
				c0.114-0.195,0.172-0.364,0.172-0.511c0-0.166-0.051-0.293-0.154-0.385c-0.102-0.09-0.236-0.136-0.401-0.136
				c-0.154,0-0.272,0.035-0.355,0.106c-0.2,0.188-0.364,0.339-0.49,0.449c-0.126,0.111-0.265,0.215-0.413,0.311
				c-0.151,0.098-0.306,0.166-0.464,0.213c-0.161,0.044-0.337,0.067-0.53,0.067c-0.287,0-0.551-0.07-0.789-0.212
				c-0.238-0.143-0.429-0.354-0.573-0.634c-0.145-0.279-0.218-0.603-0.223-0.97h3.158
				C217.388,476.261,217.714,476.201,217.947,476.081z M213.808,475.346c0.057-0.545,0.212-0.956,0.47-1.233
				c0.258-0.279,0.589-0.416,0.991-0.416c0.422,0,0.761,0.136,1.02,0.409c0.258,0.274,0.408,0.688,0.446,1.24H213.808z"/>
			<path id="XMLID_102_" style="fill:#333333;" d="M224.308,470.185c-0.245,0-0.434,0.085-0.565,0.254
				c-0.131,0.169-0.198,0.419-0.198,0.75v2.383c-0.303-0.33-0.614-0.576-0.934-0.736c-0.318-0.158-0.711-0.239-1.177-0.239
				c-0.804,0-1.452,0.282-1.945,0.846c-0.492,0.563-0.738,1.35-0.738,2.359c0,0.477,0.061,0.919,0.186,1.33
				c0.124,0.41,0.306,0.767,0.546,1.069c0.241,0.304,0.525,0.537,0.855,0.701c0.329,0.163,0.686,0.245,1.074,0.245
				c0.291,0,0.56-0.04,0.806-0.122c0.246-0.08,0.474-0.198,0.686-0.355c0.21-0.155,0.424-0.357,0.641-0.605v0.159
				c0,0.296,0.072,0.523,0.216,0.684c0.145,0.159,0.326,0.239,0.548,0.239c0.225,0,0.407-0.077,0.549-0.231
				c0.142-0.154,0.213-0.385,0.213-0.692v-7.118c0-0.304-0.065-0.532-0.197-0.688C224.739,470.263,224.552,470.185,224.308,470.185z
				 M223.245,476.998c-0.139,0.305-0.327,0.531-0.562,0.68c-0.234,0.147-0.493,0.222-0.776,0.222c-0.28,0-0.538-0.078-0.774-0.235
				c-0.236-0.154-0.424-0.386-0.559-0.693c-0.137-0.308-0.204-0.68-0.204-1.117c0-0.413,0.063-0.777,0.191-1.092
				c0.128-0.313,0.309-0.553,0.541-0.721c0.233-0.167,0.497-0.251,0.793-0.251c0.282,0,0.544,0.082,0.782,0.244
				c0.238,0.165,0.429,0.401,0.567,0.71c0.141,0.31,0.21,0.68,0.21,1.109C223.455,476.31,223.386,476.692,223.245,476.998z"/>
			<path id="XMLID_99_" style="fill:#333333;" d="M233.649,472.978c-0.404-0.254-0.873-0.382-1.41-0.382
				c-0.465,0-0.856,0.084-1.17,0.251c-0.316,0.167-0.626,0.409-0.93,0.725v-2.466c0-0.296-0.066-0.522-0.2-0.683
				c-0.134-0.158-0.325-0.238-0.574-0.238c-0.235,0-0.42,0.084-0.552,0.251c-0.133,0.167-0.198,0.414-0.198,0.741v7.047
				c0,0.304,0.067,0.533,0.204,0.69c0.136,0.155,0.318,0.232,0.546,0.232c0.226,0,0.411-0.077,0.557-0.232
				c0.146-0.157,0.218-0.387,0.218-0.69v-0.159c0.178,0.204,0.321,0.359,0.43,0.461c0.108,0.104,0.24,0.202,0.394,0.299
				c0.153,0.098,0.339,0.174,0.559,0.233c0.218,0.06,0.451,0.089,0.7,0.089c0.405,0,0.778-0.082,1.114-0.245
				c0.337-0.164,0.623-0.396,0.86-0.696c0.236-0.298,0.416-0.652,0.541-1.06c0.124-0.409,0.187-0.856,0.187-1.345
				c0-0.662-0.112-1.236-0.335-1.718C234.365,473.601,234.053,473.232,233.649,472.978z M232.863,477.37
				c-0.294,0.353-0.644,0.529-1.049,0.529c-0.479,0-0.863-0.174-1.157-0.519c-0.294-0.345-0.439-0.838-0.439-1.48
				c0-0.438,0.068-0.815,0.206-1.132c0.139-0.317,0.327-0.56,0.568-0.728c0.239-0.167,0.514-0.251,0.822-0.251
				c0.298,0,0.561,0.084,0.786,0.251c0.224,0.168,0.397,0.405,0.519,0.713c0.123,0.307,0.184,0.675,0.184,1.1
				C233.304,476.512,233.155,477.017,232.863,477.37z"/>
			<path id="XMLID_98_" style="fill:#333333;" d="M240.564,472.682c-0.111-0.065-0.229-0.098-0.352-0.098
				c-0.17,0-0.301,0.029-0.393,0.09c-0.092,0.058-0.18,0.172-0.264,0.342c-0.082,0.17-0.174,0.405-0.277,0.703l-1.295,3.695
				l-1.365-3.973c-0.091-0.276-0.194-0.487-0.313-0.636c-0.118-0.147-0.294-0.222-0.527-0.222c-0.134,0-0.262,0.035-0.387,0.107
				c-0.124,0.069-0.222,0.165-0.293,0.284c-0.07,0.116-0.105,0.245-0.105,0.383c0,0.131,0.06,0.34,0.183,0.627l1.985,5.001
				l-0.146,0.361c-0.11,0.264-0.208,0.464-0.292,0.598c-0.086,0.139-0.182,0.234-0.287,0.288c-0.106,0.056-0.253,0.084-0.438,0.084
				c-0.074,0-0.163-0.013-0.265-0.036c-0.083-0.025-0.168-0.036-0.255-0.036c-0.22,0-0.388,0.051-0.499,0.151
				c-0.113,0.1-0.169,0.244-0.169,0.429c0,0.272,0.118,0.459,0.354,0.563c0.236,0.102,0.592,0.152,1.064,0.152
				c0.484,0,0.868-0.073,1.155-0.222c0.285-0.147,0.516-0.36,0.688-0.636c0.174-0.275,0.352-0.656,0.533-1.141l2.105-5.51
				c0.051-0.142,0.094-0.282,0.129-0.419c0.037-0.139,0.061-0.245,0.078-0.32c0-0.122-0.031-0.238-0.092-0.348
				C240.764,472.834,240.678,472.747,240.564,472.682z"/>
		</g>
		<g id="XMLID_61_">
			<g id="XMLID_76_">
				<path id="XMLID_96_" style="fill:#333333;" d="M262.88,470.18c-0.531,0-0.949,0.068-1.255,0.203
					c-0.307,0.137-0.525,0.353-0.652,0.649c-0.129,0.3-0.191,0.7-0.191,1.207v0.485h-0.385c-0.541,0-0.811,0.19-0.811,0.579
					c0,0.174,0.064,0.314,0.195,0.422c0.131,0.11,0.314,0.163,0.557,0.163h0.443v4.277c0,0.316,0.074,0.56,0.227,0.727
					c0.154,0.169,0.344,0.253,0.572,0.253c0.242,0,0.436-0.084,0.587-0.253c0.154-0.167,0.23-0.41,0.23-0.727v-4.277h0.393
					c0.291,0,0.516-0.035,0.678-0.107c0.166-0.07,0.244-0.239,0.244-0.501c0-0.371-0.305-0.556-0.922-0.556h-0.393v-0.386
					c0-0.32,0.043-0.565,0.121-0.736c0.086-0.171,0.271-0.259,0.563-0.259c0.107,0,0.24,0.014,0.389,0.034
					c0.154,0.026,0.266,0.038,0.328,0.038c0.135,0,0.252-0.055,0.348-0.159c0.1-0.107,0.148-0.235,0.148-0.384
					C264.294,470.408,263.825,470.18,262.88,470.18z"/>
				<path id="XMLID_95_" style="fill:#333333;" d="M268.019,472.835c-0.318-0.17-0.645-0.254-0.986-0.254
					c-0.34,0-0.607,0.084-0.814,0.254c-0.201,0.17-0.398,0.419-0.59,0.752c-0.014-0.333-0.08-0.582-0.199-0.752
					c-0.117-0.17-0.31-0.254-0.58-0.254c-0.523,0-0.785,0.363-0.785,1.089v4.496c0,0.321,0.078,0.565,0.225,0.73
					c0.148,0.168,0.34,0.25,0.578,0.25c0.234,0,0.43-0.081,0.582-0.246c0.15-0.163,0.233-0.409,0.233-0.733v-1.351
					c0-0.484,0.014-0.896,0.045-1.233c0.033-0.336,0.09-0.628,0.17-0.874c0.084-0.242,0.201-0.424,0.352-0.552
					c0.148-0.122,0.344-0.185,0.58-0.185c0.17,0,0.371,0.035,0.598,0.106c0.227,0.073,0.371,0.112,0.434,0.112
					c0.156,0,0.301-0.063,0.438-0.194c0.135-0.125,0.203-0.29,0.203-0.486C268.499,473.231,268.341,473.005,268.019,472.835z"/>
				<path id="XMLID_92_" style="fill:#333333;" d="M274.081,476.079c0.232-0.121,0.35-0.383,0.35-0.788
					c0-0.438-0.111-0.866-0.338-1.291c-0.221-0.421-0.563-0.766-1.014-1.028c-0.451-0.269-0.992-0.402-1.621-0.402
					c-0.486,0-0.928,0.078-1.324,0.232c-0.4,0.157-0.732,0.38-1.004,0.673c-0.273,0.293-0.482,0.641-0.621,1.05
					c-0.145,0.409-0.217,0.852-0.217,1.328c0,1.013,0.291,1.816,0.865,2.408c0.574,0.591,1.381,0.886,2.42,0.886
					c0.451,0,0.854-0.061,1.201-0.179c0.348-0.116,0.637-0.268,0.871-0.444c0.23-0.181,0.402-0.366,0.52-0.564
					c0.111-0.193,0.166-0.363,0.166-0.509c0-0.167-0.047-0.293-0.152-0.385c-0.103-0.093-0.236-0.138-0.402-0.138
					c-0.152,0-0.27,0.037-0.355,0.107c-0.201,0.188-0.365,0.339-0.49,0.447c-0.127,0.113-0.264,0.218-0.414,0.312
					c-0.15,0.097-0.305,0.169-0.463,0.212c-0.16,0.048-0.334,0.069-0.529,0.069c-0.289,0-0.549-0.07-0.789-0.211
					c-0.238-0.145-0.428-0.355-0.576-0.634c-0.143-0.278-0.215-0.603-0.221-0.97h3.158
					C273.522,476.26,273.849,476.2,274.081,476.079z M269.942,475.343c0.055-0.544,0.213-0.953,0.471-1.232
					c0.258-0.279,0.59-0.416,0.99-0.416c0.424,0,0.76,0.135,1.02,0.41c0.26,0.272,0.406,0.685,0.445,1.237H269.942z"/>
				<path id="XMLID_89_" style="fill:#333333;" d="M280.794,476.079c0.23-0.121,0.352-0.383,0.352-0.788
					c0-0.438-0.117-0.866-0.34-1.291c-0.221-0.421-0.561-0.766-1.01-1.028c-0.457-0.269-0.998-0.402-1.627-0.402
					c-0.484,0-0.928,0.078-1.324,0.232c-0.398,0.157-0.734,0.38-1.006,0.673c-0.272,0.293-0.479,0.641-0.619,1.05
					c-0.143,0.409-0.217,0.852-0.217,1.328c0,1.013,0.291,1.816,0.865,2.408c0.578,0.591,1.381,0.886,2.42,0.886
					c0.451,0,0.855-0.061,1.203-0.179c0.346-0.116,0.639-0.268,0.869-0.444c0.232-0.181,0.406-0.366,0.516-0.564
					c0.117-0.193,0.17-0.363,0.17-0.509c0-0.167-0.045-0.293-0.148-0.385c-0.105-0.093-0.238-0.138-0.404-0.138
					c-0.152,0-0.27,0.037-0.355,0.107c-0.201,0.188-0.365,0.339-0.49,0.447c-0.125,0.113-0.262,0.218-0.412,0.312
					c-0.152,0.097-0.307,0.169-0.467,0.212c-0.158,0.048-0.334,0.069-0.525,0.069c-0.291,0-0.555-0.07-0.793-0.211
					c-0.236-0.145-0.428-0.355-0.572-0.634c-0.143-0.278-0.217-0.603-0.221-0.97h3.156
					C280.235,476.26,280.561,476.2,280.794,476.079z M276.657,475.343c0.053-0.544,0.209-0.953,0.467-1.232
					c0.26-0.279,0.59-0.416,0.992-0.416c0.424,0,0.76,0.135,1.022,0.41c0.256,0.272,0.406,0.685,0.445,1.237H276.657z"/>
				<path id="XMLID_86_" style="fill:#333333;" d="M286.78,472.978c-0.418-0.256-0.879-0.386-1.371-0.386
					c-0.414,0-0.787,0.09-1.111,0.267c-0.328,0.175-0.645,0.45-0.947,0.824v-0.193c0-0.296-0.072-0.518-0.217-0.676
					c-0.143-0.154-0.328-0.232-0.559-0.232c-0.232,0-0.416,0.078-0.551,0.227c-0.133,0.154-0.199,0.381-0.199,0.689v6.968
					c0,0.354,0.051,0.618,0.146,0.804c0.1,0.182,0.299,0.273,0.604,0.273c0.516,0,0.775-0.357,0.775-1.064v-2.424
					c0.285,0.357,0.584,0.633,0.897,0.814c0.313,0.186,0.701,0.278,1.162,0.278c0.381,0,0.738-0.076,1.074-0.227
					c0.332-0.152,0.619-0.371,0.863-0.651c0.246-0.282,0.439-0.629,0.578-1.046c0.141-0.416,0.211-0.874,0.211-1.37
					c0-0.674-0.123-1.256-0.367-1.751C287.528,473.608,287.2,473.234,286.78,472.978z M286.306,476.964
					c-0.135,0.311-0.318,0.544-0.549,0.702c-0.229,0.152-0.479,0.232-0.744,0.232c-0.453,0-0.824-0.179-1.129-0.534
					c-0.305-0.357-0.457-0.859-0.457-1.498c0-0.684,0.154-1.199,0.459-1.552c0.307-0.348,0.682-0.525,1.127-0.525
					c0.279,0,0.537,0.083,0.766,0.246c0.229,0.163,0.41,0.396,0.539,0.702c0.131,0.305,0.197,0.672,0.197,1.097
					C286.515,476.274,286.444,476.652,286.306,476.964z"/>
				<path id="XMLID_85_" style="fill:#333333;" d="M289.743,472.581c-0.236,0-0.426,0.079-0.576,0.243
					c-0.146,0.163-0.223,0.402-0.223,0.719v4.624c0,0.311,0.076,0.552,0.223,0.726c0.15,0.169,0.34,0.253,0.576,0.253
					c0.238,0,0.432-0.082,0.586-0.25c0.154-0.164,0.23-0.408,0.23-0.729v-4.671c0-0.284-0.076-0.509-0.23-0.672
					C290.175,472.66,289.981,472.581,289.743,472.581z"/>
				<path id="XMLID_84_" style="fill:#333333;" d="M289.759,470.25c-0.215,0-0.404,0.075-0.568,0.222
					c-0.164,0.148-0.246,0.337-0.246,0.565c0,0.252,0.08,0.446,0.24,0.584c0.158,0.137,0.35,0.208,0.574,0.208
					c0.221,0,0.408-0.071,0.564-0.209c0.158-0.139,0.236-0.334,0.236-0.583c0-0.256-0.082-0.452-0.244-0.588
					C290.157,470.316,289.972,470.25,289.759,470.25z"/>
				<path id="XMLID_83_" style="fill:#333333;" d="M297.073,477.591l-1.656-2.604l0.857-0.784c0.436-0.395,0.656-0.712,0.656-0.948
					c0-0.191-0.068-0.353-0.201-0.481c-0.135-0.127-0.303-0.191-0.506-0.191c-0.168,0-0.311,0.043-0.43,0.13
					c-0.121,0.085-0.289,0.25-0.516,0.484l-1.814,1.905v-3.917c0-0.328-0.074-0.579-0.221-0.748c-0.145-0.17-0.342-0.256-0.59-0.256
					c-0.254,0-0.455,0.093-0.592,0.282c-0.137,0.188-0.207,0.46-0.207,0.816v6.888c0,0.321,0.072,0.565,0.215,0.73
					c0.139,0.168,0.336,0.25,0.584,0.25c0.213,0,0.404-0.084,0.565-0.253c0.164-0.167,0.246-0.405,0.246-0.716v-1.285l0.877-0.827
					l1.422,2.344c0.182,0.277,0.328,0.47,0.434,0.577c0.105,0.109,0.26,0.16,0.457,0.16c0.225,0,0.412-0.073,0.551-0.221
					c0.141-0.15,0.213-0.35,0.213-0.607c0-0.089-0.029-0.189-0.082-0.287C297.282,477.93,297.192,477.785,297.073,477.591z"/>
				<path id="XMLID_82_" style="fill:#333333;" d="M299.255,477.365c-0.248,0-0.457,0.086-0.627,0.261
					c-0.17,0.172-0.256,0.379-0.256,0.619c0,0.286,0.092,0.508,0.267,0.663c0.178,0.158,0.389,0.237,0.631,0.237
					c0.236,0,0.441-0.079,0.621-0.24c0.176-0.157,0.262-0.379,0.262-0.66c0-0.242-0.086-0.452-0.262-0.623
					C299.712,477.451,299.503,477.365,299.255,477.365z"/>
				<path id="XMLID_81_" style="fill:#333333;" d="M306.61,476.442c-0.164,0-0.305,0.054-0.42,0.155
					c-0.113,0.104-0.217,0.244-0.316,0.425c-0.176,0.309-0.379,0.536-0.613,0.687c-0.23,0.149-0.508,0.225-0.83,0.225
					c-0.24,0-0.461-0.045-0.664-0.141c-0.201-0.094-0.371-0.228-0.514-0.407c-0.145-0.179-0.25-0.396-0.324-0.65
					c-0.074-0.255-0.113-0.534-0.113-0.838c0-0.645,0.146-1.157,0.438-1.527c0.291-0.374,0.68-0.56,1.154-0.56
					c0.33,0,0.603,0.075,0.816,0.226c0.219,0.147,0.422,0.375,0.621,0.672c0.107,0.157,0.207,0.269,0.297,0.337
					c0.09,0.069,0.201,0.105,0.338,0.105c0.199,0,0.375-0.068,0.522-0.202c0.143-0.135,0.213-0.299,0.213-0.489
					c0-0.192-0.063-0.397-0.193-0.615c-0.125-0.217-0.312-0.422-0.551-0.617c-0.246-0.192-0.539-0.352-0.889-0.472
					c-0.352-0.124-0.732-0.185-1.15-0.185c-0.672,0-1.256,0.139-1.742,0.418c-0.482,0.276-0.854,0.67-1.109,1.178
					c-0.256,0.509-0.385,1.093-0.385,1.758c0,0.977,0.281,1.758,0.84,2.34c0.559,0.58,1.338,0.873,2.338,0.873
					c0.467,0,0.891-0.065,1.264-0.191c0.377-0.125,0.686-0.293,0.93-0.501c0.248-0.206,0.434-0.423,0.551-0.652
					c0.123-0.228,0.184-0.444,0.184-0.643c0-0.169-0.066-0.33-0.199-0.479C306.974,476.519,306.81,476.442,306.61,476.442z"/>
				<path id="XMLID_78_" style="fill:#333333;" d="M313.397,473.49c-0.289-0.289-0.627-0.515-1.023-0.672
					c-0.4-0.159-0.844-0.237-1.332-0.237c-0.48,0-0.92,0.078-1.32,0.232c-0.396,0.158-0.734,0.379-1.016,0.667
					c-0.279,0.286-0.496,0.634-0.646,1.04c-0.145,0.407-0.223,0.854-0.223,1.344c0,0.483,0.076,0.926,0.219,1.327
					c0.15,0.399,0.369,0.747,0.654,1.043c0.283,0.291,0.625,0.518,1.012,0.674c0.391,0.158,0.832,0.238,1.32,0.238
					c0.49,0,0.934-0.08,1.332-0.233c0.393-0.157,0.732-0.381,1.016-0.673c0.285-0.289,0.5-0.639,0.652-1.045
					c0.147-0.407,0.223-0.852,0.223-1.331c0-0.486-0.076-0.928-0.221-1.334C313.897,474.131,313.681,473.785,313.397,473.49z
					 M312.21,477.391c-0.289,0.371-0.68,0.555-1.168,0.555c-0.322,0-0.6-0.085-0.842-0.251c-0.238-0.168-0.422-0.408-0.551-0.727
					c-0.129-0.315-0.191-0.682-0.191-1.104c0-0.426,0.064-0.8,0.195-1.12c0.129-0.319,0.315-0.561,0.553-0.725
					c0.242-0.162,0.52-0.244,0.836-0.244c0.488,0,0.879,0.182,1.168,0.553c0.287,0.366,0.434,0.878,0.434,1.536
					C312.644,476.512,312.497,477.022,312.21,477.391z"/>
				<path id="XMLID_77_" style="fill:#333333;" d="M323.28,472.853c-0.32-0.172-0.703-0.262-1.143-0.262
					c-0.377,0-0.723,0.081-1.033,0.24c-0.313,0.161-0.605,0.407-0.879,0.735c-0.191-0.324-0.428-0.569-0.723-0.732
					c-0.289-0.161-0.637-0.243-1.043-0.243c-0.393,0-0.744,0.079-1.065,0.24c-0.32,0.156-0.619,0.402-0.902,0.735v-0.152
					c0-0.26-0.072-0.464-0.219-0.614c-0.15-0.144-0.334-0.22-0.555-0.22c-0.227,0-0.41,0.078-0.555,0.237
					c-0.139,0.157-0.209,0.388-0.209,0.691v4.618c0,0.335,0.078,0.589,0.234,0.762c0.156,0.17,0.355,0.257,0.603,0.257
					c0.246,0,0.445-0.087,0.6-0.257c0.148-0.173,0.225-0.427,0.225-0.762v-2.18c0-0.681,0.086-1.202,0.254-1.561
					c0.166-0.368,0.514-0.548,1.041-0.548c0.264,0,0.459,0.071,0.58,0.219c0.121,0.142,0.197,0.329,0.227,0.55
					c0.027,0.225,0.039,0.542,0.039,0.948v2.571c0,0.34,0.078,0.591,0.23,0.765c0.148,0.169,0.35,0.254,0.594,0.254
					c0.254,0,0.451-0.085,0.607-0.254c0.156-0.174,0.228-0.425,0.228-0.765v-2.146c0-0.691,0.063-1.173,0.178-1.446
					c0.109-0.208,0.26-0.381,0.449-0.506c0.191-0.124,0.393-0.19,0.607-0.19c0.262,0,0.461,0.071,0.594,0.214
					c0.125,0.142,0.207,0.317,0.236,0.526c0.029,0.209,0.043,0.484,0.043,0.834v2.714c0,0.335,0.078,0.589,0.234,0.762
					c0.156,0.17,0.355,0.257,0.6,0.257c0.252,0,0.459-0.085,0.609-0.254c0.154-0.174,0.23-0.425,0.23-0.765v-3.151
					c0-0.626-0.068-1.086-0.207-1.38C323.837,473.275,323.599,473.026,323.28,472.853z"/>
			</g>
			<g id="XMLID_62_">
				<path id="XMLID_75_" style="fill:#333333;" d="M245.291,475.473c-0.002-0.002-0.002-0.005-0.002-0.01
					C245.289,475.468,245.289,475.471,245.291,475.473z"/>
				<path id="XMLID_74_" style="fill:#333333;" d="M245.373,475.988L245.373,475.988c-0.029-0.146-0.055-0.292-0.072-0.436
					C245.318,475.698,245.344,475.845,245.373,475.988z"/>
				<path id="XMLID_73_" style="fill:#333333;" d="M245.906,477.487c-0.004-0.007-0.006-0.014-0.01-0.022
					C245.9,477.474,245.902,477.48,245.906,477.487z"/>
				<path id="XMLID_72_" style="fill:#333333;" d="M245.855,477.388c-0.014-0.027-0.027-0.056-0.041-0.083
					C245.828,477.334,245.842,477.36,245.855,477.388z"/>
				<path id="XMLID_71_" style="fill:#333333;" d="M245.521,476.566c0.08,0.249,0.174,0.49,0.285,0.721
					c-0.113-0.235-0.205-0.477-0.283-0.721H245.521z"/>
				<path id="XMLID_70_" style="fill:#333333;" d="M250.732,468.738l-0.076-0.259c0.299-0.063,0.523-0.328,0.523-0.645
					c0-0.361-0.297-0.656-0.658-0.656c-0.365,0-0.658,0.295-0.658,0.656c0,0.316,0.225,0.582,0.52,0.645l0.084,0.288
					c-1.018,0.14-1.826,0.536-1.826,0.536l0.143,0.439c0.613-0.206,1.148-0.33,1.635-0.382c0.473-0.051,0.83-0.072,1.121-0.072
					c0.313,0,0.543,0.024,0.807,0.068l0.074-0.474C252.42,468.884,251.691,468.659,250.732,468.738z"/>
				<path id="XMLID_69_" style="fill:#333333;" d="M245.469,471.235c-0.018,0.023-0.494,0.463-0.871,1.273
					c-0.016-0.024-0.035-0.05-0.057-0.073c-0.111-0.124-0.271-0.186-0.471-0.183c-0.004,0-0.008,0-0.01,0
					c-0.123,0-0.209-0.042-0.266-0.093c0.057-0.07,0.09-0.159,0.09-0.257c0-0.229-0.188-0.417-0.418-0.417
					c-0.229,0-0.416,0.188-0.416,0.417c0,0.23,0.188,0.415,0.416,0.415c0.035,0,0.07-0.005,0.104-0.012
					c0.104,0.113,0.266,0.213,0.502,0.208c0.123-0.002,0.215,0.03,0.273,0.097c0.07,0.075,0.094,0.184,0.1,0.266
					c-0.002,0.002-0.002,0.004-0.002,0.004c-0.271,0.74-0.193,1.661-0.193,1.661l0.658,0.025c0.014-0.335,0.061-0.921,0.23-1.387
					c0.328-0.903,0.74-1.466,0.756-1.49l0.004-0.005c0.023-0.031,0.045-0.06,0.068-0.089l-0.193-0.141L245.469,471.235z"/>
				<path id="XMLID_68_" style="fill:#333333;" d="M257.266,469.839c-0.23,0-0.418,0.186-0.418,0.416
					c0,0.036,0.006,0.07,0.016,0.103c-0.113,0.104-0.213,0.266-0.209,0.504c0.002,0.123-0.031,0.212-0.098,0.272
					c-0.053,0.047-0.117,0.071-0.184,0.087c-0.49-0.687-1.094-1.105-1.094-1.105l-0.471,0.507c0.357,0.325,0.721,0.732,1.076,1.239
					c0.244,0.351,0.496,0.803,0.707,1.253l0.637-0.303c0,0-0.291-0.719-0.701-1.363c0.072-0.025,0.143-0.063,0.207-0.12
					c0.125-0.112,0.185-0.272,0.182-0.472c0-0.129,0.041-0.217,0.092-0.274c0.072,0.054,0.16,0.089,0.258,0.089
					c0.23,0,0.416-0.186,0.416-0.417C257.682,470.025,257.496,469.839,257.266,469.839z"/>
				<path id="XMLID_67_" style="fill:#333333;" d="M255.611,475.566c-0.877,0.427-2.32,0.992-4.221,1.257
					c-0.748,0.104-1.471,0.142-2.135,0.142c-0.865,0-1.631-0.063-2.219-0.139c-0.668-0.084-1.191-0.188-1.514-0.26
					c0.078,0.244,0.17,0.485,0.283,0.721c0.002,0.006,0.004,0.013,0.008,0.018c0.014,0.027,0.027,0.056,0.041,0.083
					c0.014,0.027,0.027,0.055,0.041,0.078c0.004,0.008,0.006,0.015,0.01,0.022c0.188,0.355,0.416,0.682,0.672,0.964
					c0.896,0.98,1.811,1.135,1.818,1.137l0.014,0.002l0.014,0.005c0.008,0.003,0.818,0.264,2.051,0.264
					c1.211,0,2.398-0.243,3.531-0.726c0.838-0.43,1.633-1.081,2.025-1.662c0.305-0.45,0.523-0.93,0.654-1.428
					c0.068-0.265,0.123-0.69,0.09-1.136C256.529,475.073,256.139,475.31,255.611,475.566z"/>
				<path id="XMLID_63_" style="fill:#333333;" d="M252.313,469.708c-0.262-0.044-0.475-0.068-0.773-0.068
					c-0.277,0-0.625,0.023-1.084,0.07c-0.465,0.049-0.98,0.17-1.578,0.371c-0.84,0.281-1.598,0.722-2.195,1.275l-0.02,0.019
					c-0.09,0.081-0.273,0.253-0.486,0.523c-0.025,0.037-0.406,0.576-0.707,1.402c-0.225,0.619-0.215,1.52-0.215,1.531v0.001
					c0,0.211,0.012,0.421,0.035,0.63c0,0.005,0,0.008,0.002,0.01c0.002,0.027,0.006,0.053,0.01,0.08
					c0.018,0.144,0.043,0.29,0.072,0.436c0.438,0.112,3.035,0.719,5.945,0.313c1.822-0.253,3.205-0.792,4.045-1.199
					c0.697-0.339,1.146-0.645,1.32-0.771c-0.174-0.64-0.65-1.643-1.086-2.27C254.35,470.279,253.004,469.821,252.313,469.708z
					 M248.682,474.946c-0.967,0-1.752-0.784-1.752-1.753c0-0.968,0.785-1.753,1.752-1.753c0.969,0,1.756,0.785,1.756,1.753
					C250.438,474.162,249.65,474.946,248.682,474.946z M253.813,473.654c-0.598,0-1.082-0.487-1.082-1.086
					c0-0.6,0.484-1.085,1.082-1.085c0.6,0,1.086,0.485,1.086,1.085C254.898,473.167,254.412,473.654,253.813,473.654z"/>
			</g>
		</g>
	</g>
</g>
</svg>
